<svg width="55" height="55" viewBox="0 0 55 55" fill="none" xmlns="http://www.w3.org/2000/svg">
<circle cx="27.5" cy="27.5" r="27.5" fill="white"/>
<path d="M27.5 0C12.375 0 0 12.375 0 27.5C0 42.625 12.375 55 27.5 55C42.625 55 55 42.625 55 27.5C55 12.375 42.625 0 27.5 0ZM37.4687 31.2813H33.6875C33 31.2813 32.6562 31.625 32.6562 32.3125V38.1563C32.6562 38.5 32.3125 38.8438 31.9688 38.8438H23.0312C22.6875 38.8438 22.3438 38.5 22.3438 38.1563V31.9688C22.3438 31.625 22 30.9375 21.3125 30.9375H17.5312C17.1875 31.2813 17.1875 30.9375 17.1875 30.9375L26.8125 21.6563C27.1563 21.3125 27.5 21.3125 27.8438 21.6563L37.8125 30.9375C37.8125 30.9375 37.8125 31.2813 37.4687 31.2813ZM37.8125 19.5937H17.1875C16.1562 19.5937 15.4688 18.9062 15.4688 17.875C15.4688 16.8437 16.1562 16.1562 17.1875 16.1562H37.8125C38.8438 16.1562 39.5312 16.8437 39.5312 17.875C39.5312 18.9062 38.8438 19.5937 37.8125 19.5937Z" fill="url(#paint0_linear_398_7273)"/>
<defs>
<linearGradient id="paint0_linear_398_7273" x1="27" y1="55" x2="27" y2="1.66048e-08" gradientUnits="userSpaceOnUse">
<stop stop-color="#0093E4"/>
<stop offset="1" stop-color="#00A4FF"/>
</linearGradient>
</defs>
</svg>
