<svg xmlns="http://www.w3.org/2000/svg"
aria-label="Twitter" role="img" width="48" height="48"
viewBox="0 0 48 48"><rect
width="48" height="48"
rx="20%"
fill="#1da1f3"/><path fill="#fff" d="M8 17.727L9.16599 17.8165C10.3752 16.4002 10.8502 12.211 17.9757 13.0309C17.7166 30.9805 10.1161 32.8738 10.5911 36.5562C10.7638 38.6433 12.3617 39.9255 14.0891 40C19.5448 39.8062 19.3 32.1881 20.9987 12.9862H28.0378C27.6635 19.7546 26.6415 26.5229 26.5263 33.1571C26.6127 37.57 29.2038 39.9255 32.6154 39.9553C38.2294 40.1491 40 33.3658 40 30.4736H38.7908C38.6757 32.8589 37.5673 34.5734 35.2065 34.6777C28.7719 34.7672 32.3131 22.9598 32.3563 13.0757L40 13.1204L39.9568 8.06648C8.18655 7.9071 12.2191 7.26204 8 17.727Z"/></svg>