<svg width="32" height="32" viewBox="0 0 32 32" fill="none" xmlns="http://www.w3.org/2000/svg">
<rect width="32" height="32" rx="16" fill="#019EF5"/>
<path d="M24.3059 10.8279C24.2616 10.9696 24.2272 11.1158 24.1682 11.2529C24.0433 11.5379 23.8279 11.7806 23.5508 11.9488C23.2736 12.117 22.9479 12.2027 22.617 12.1944C21.6238 12.1944 20.6314 12.1944 19.6399 12.1944C19.4875 12.1944 19.4408 12.2332 19.4113 12.3703C19.0012 14.2092 18.8042 16.0837 18.8237 17.9616C18.8532 18.9624 18.9589 19.9587 19.3941 20.8933C19.5672 21.3171 19.8654 21.6869 20.2545 21.9603C20.518 22.1327 20.8291 22.2314 21.151 22.2447C21.4729 22.2581 21.7922 22.1856 22.0712 22.0357C22.2826 21.9332 22.4798 21.8074 22.6588 21.661C22.847 21.5092 22.9917 21.3164 23.0801 21.0999C23.1685 20.8834 23.1977 20.6499 23.1652 20.4203C23.1652 20.3974 23.1652 20.3746 23.1652 20.3517C23.1652 20.242 23.1037 20.1049 23.2463 20.0364C23.3889 19.9678 23.5266 20.0364 23.6347 20.1324C23.9207 20.3662 24.1159 20.6809 24.1903 21.0281C24.29 21.4269 24.2957 21.8411 24.207 22.2422C24.1183 22.6433 23.9373 23.0219 23.6765 23.3519C22.6932 24.684 20.6011 25.3375 18.9614 24.8257C18.4873 24.6751 18.0549 24.4291 17.6949 24.1052C17.335 23.7813 17.0564 23.3876 16.8792 22.952C16.6251 22.3169 16.4694 21.6514 16.417 20.9755C16.2253 19.2677 16.1859 17.5481 16.299 15.8343C16.358 14.6416 16.4588 13.4488 16.5448 12.2583C16.5466 12.2401 16.5466 12.2217 16.5448 12.2035H13.6022C13.6022 12.2492 13.5899 12.2903 13.5899 12.3337C13.6685 14.9934 13.7505 17.6532 13.8357 20.3129C13.8946 21.1854 13.7847 22.0607 13.5112 22.8972C13.3142 23.5215 12.9234 24.0778 12.3877 24.4967C12.094 24.7144 11.7332 24.8393 11.3579 24.8533C10.9825 24.8672 10.6121 24.7695 10.3006 24.5743C9.69583 24.2019 9.28037 23.7266 9.22137 23.0297C9.18314 22.6184 9.2488 22.2045 9.41312 21.821C9.68846 21.1834 9.97855 20.5482 10.3055 19.9336C10.6604 19.2284 10.8864 18.4731 10.9742 17.6989C11.1593 16.3205 11.2193 14.9302 11.1536 13.5425C11.1364 13.1266 11.0799 12.713 11.0479 12.2972C11.0479 12.2035 10.9988 12.1464 10.898 12.1464C10.5003 12.1311 10.1019 12.141 9.70567 12.1761C8.81251 12.3291 7.94306 12.5839 7.11701 12.9347C6.8933 13.0215 6.65976 13.0946 6.42621 13.1632C6.34623 13.1836 6.26312 13.1913 6.18038 13.186C6.14706 13.1902 6.11313 13.1865 6.08177 13.1752C6.05042 13.1639 6.02264 13.1455 6.00104 13.1215C5.97944 13.0976 5.96472 13.0689 5.95825 13.0382C5.95178 13.0076 5.95377 12.9759 5.96404 12.9461C5.98489 12.8261 6.02728 12.7103 6.08942 12.6034C6.77595 11.4602 7.6884 10.4478 8.77887 9.61919C9.4641 9.10742 10.3189 8.83208 11.1979 8.84001C15.0059 8.85829 18.8188 8.84001 22.6219 8.84001C23.5905 8.84001 24.119 9.2513 24.2862 10.1379C24.2936 10.1641 24.3044 10.1894 24.3182 10.2133L24.3059 10.8279Z" fill="white"/>
</svg>
